<svg width="2361" height="835" viewBox="0 0 2361 835" fill="none" xmlns="http://www.w3.org/2000/svg">
<path d="M866.006 479.402V470.523H918.915V479.402H897.585V538.887H887.303V479.402H866.006ZM998.286 538.887V470.523H1041.15V479.402H1008.6V500.232H1038.91V509.078H1008.6V530.007H1041.55V538.887H998.286ZM1179.39 492.755H1168.97C1168.57 490.529 1167.82 488.571 1166.73 486.88C1165.64 485.188 1164.31 483.753 1162.73 482.574C1161.15 481.394 1159.38 480.504 1157.42 479.903C1155.49 479.302 1153.43 479.002 1151.25 479.002C1147.31 479.002 1143.78 479.992 1140.66 481.973C1137.57 483.953 1135.12 486.857 1133.32 490.685C1131.54 494.513 1130.65 499.186 1130.65 504.705C1130.65 510.268 1131.54 514.964 1133.32 518.792C1135.12 522.619 1137.58 525.512 1140.7 527.471C1143.81 529.429 1147.32 530.408 1151.21 530.408C1153.37 530.408 1155.42 530.119 1157.35 529.54C1159.31 528.939 1161.08 528.06 1162.66 526.903C1164.24 525.746 1165.58 524.333 1166.67 522.664C1167.78 520.972 1168.55 519.036 1168.97 516.855L1179.39 516.889C1178.83 520.249 1177.75 523.342 1176.15 526.169C1174.57 528.973 1172.53 531.398 1170.04 533.446C1167.57 535.471 1164.74 537.04 1161.56 538.152C1158.38 539.265 1154.91 539.821 1151.15 539.821C1145.23 539.821 1139.95 538.419 1135.32 535.615C1130.69 532.789 1127.04 528.75 1124.37 523.498C1121.73 518.246 1120.4 511.982 1120.4 504.705C1120.4 497.406 1121.74 491.141 1124.41 485.912C1127.08 480.66 1130.73 476.632 1135.36 473.828C1139.99 471.002 1145.25 469.588 1151.15 469.588C1154.77 469.588 1158.16 470.111 1161.29 471.157C1164.45 472.181 1167.29 473.694 1169.81 475.697C1172.32 477.678 1174.4 480.103 1176.05 482.974C1177.69 485.823 1178.81 489.083 1179.39 492.755ZM1259.41 538.887V470.523H1269.72V500.232H1303.8V470.523H1314.15V538.887H1303.8V509.078H1269.72V538.887H1259.41ZM1452.03 470.523V538.887H1442.55L1407.8 488.749H1407.17V538.887H1396.85V470.523H1406.4L1441.18 520.728H1441.82V470.523H1452.03ZM1594.14 504.705C1594.14 512.004 1592.81 518.28 1590.14 523.532C1587.47 528.761 1583.81 532.789 1579.15 535.615C1574.53 538.419 1569.26 539.821 1563.37 539.821C1557.45 539.821 1552.16 538.419 1547.51 535.615C1542.88 532.789 1539.23 528.75 1536.56 523.498C1533.89 518.246 1532.56 511.982 1532.56 504.705C1532.56 497.406 1533.89 491.141 1536.56 485.912C1539.23 480.66 1542.88 476.632 1547.51 473.828C1552.16 471.002 1557.45 469.588 1563.37 469.588C1569.26 469.588 1574.53 471.002 1579.15 473.828C1583.81 476.632 1587.47 480.66 1590.14 485.912C1592.81 491.141 1594.14 497.406 1594.14 504.705ZM1583.93 504.705C1583.93 499.141 1583.03 494.457 1581.22 490.652C1579.44 486.824 1577 483.931 1573.88 481.973C1570.79 479.992 1567.28 479.002 1563.37 479.002C1559.43 479.002 1555.91 479.992 1552.82 481.973C1549.72 483.931 1547.28 486.824 1545.47 490.652C1543.69 494.457 1542.8 499.141 1542.8 504.705C1542.8 510.268 1543.69 514.964 1545.47 518.792C1547.28 522.597 1549.72 525.49 1552.82 527.471C1555.91 529.429 1559.43 530.408 1563.37 530.408C1567.28 530.408 1570.79 529.429 1573.88 527.471C1577 525.49 1579.44 522.597 1581.22 518.792C1583.03 514.964 1583.93 510.268 1583.93 504.705ZM1674.68 538.887V470.523H1685V530.007H1715.97V538.887H1674.68ZM1852.14 504.705C1852.14 512.004 1850.81 518.28 1848.14 523.532C1845.47 528.761 1841.81 532.789 1837.16 535.615C1832.53 538.419 1827.26 539.821 1821.37 539.821C1815.45 539.821 1810.16 538.419 1805.51 535.615C1800.88 532.789 1797.23 528.75 1794.56 523.498C1791.89 518.246 1790.56 511.982 1790.56 504.705C1790.56 497.406 1791.89 491.141 1794.56 485.912C1797.23 480.66 1800.88 476.632 1805.51 473.828C1810.16 471.002 1815.45 469.588 1821.37 469.588C1827.26 469.588 1832.53 471.002 1837.16 473.828C1841.81 476.632 1845.47 480.66 1848.14 485.912C1850.81 491.141 1852.14 497.406 1852.14 504.705ZM1841.93 504.705C1841.93 499.141 1841.03 494.457 1839.22 490.652C1837.44 486.824 1835 483.931 1831.88 481.973C1828.79 479.992 1825.28 479.002 1821.37 479.002C1817.43 479.002 1813.91 479.992 1810.82 481.973C1807.72 483.931 1805.28 486.824 1803.47 490.652C1801.69 494.457 1800.8 499.141 1800.8 504.705C1800.8 510.268 1801.69 514.964 1803.47 518.792C1805.28 522.597 1807.72 525.49 1810.82 527.471C1813.91 529.429 1817.43 530.408 1821.37 530.408C1825.28 530.408 1828.79 529.429 1831.88 527.471C1835 525.49 1837.44 522.597 1839.22 518.792C1841.03 514.964 1841.93 510.268 1841.93 504.705ZM1978.95 492.12C1978.3 490.095 1977.44 488.282 1976.34 486.679C1975.28 485.055 1974 483.675 1972.51 482.54C1971.02 481.383 1969.31 480.504 1967.4 479.903C1965.51 479.302 1963.43 479.002 1961.16 479.002C1957.31 479.002 1953.84 479.992 1950.74 481.973C1947.65 483.953 1945.2 486.857 1943.4 490.685C1941.62 494.49 1940.73 499.153 1940.73 504.672C1940.73 510.213 1941.63 514.897 1943.43 518.725C1945.23 522.552 1947.7 525.457 1950.84 527.437C1953.98 529.418 1957.55 530.408 1961.56 530.408C1965.27 530.408 1968.51 529.651 1971.27 528.138C1974.05 526.625 1976.2 524.489 1977.71 521.729C1979.25 518.947 1980.02 515.676 1980.02 511.915L1982.69 512.416H1963.13V503.904H1990V511.681C1990 517.423 1988.77 522.408 1986.33 526.636C1983.9 530.842 1980.54 534.091 1976.24 536.383C1971.97 538.675 1967.08 539.821 1961.56 539.821C1955.37 539.821 1949.94 538.397 1945.27 535.549C1940.62 532.7 1936.99 528.661 1934.39 523.431C1931.78 518.18 1930.48 511.949 1930.48 504.738C1930.48 499.286 1931.24 494.39 1932.75 490.051C1934.26 485.711 1936.39 482.028 1939.13 479.002C1941.88 475.953 1945.12 473.627 1948.84 472.025C1952.58 470.401 1956.66 469.588 1961.09 469.588C1964.78 469.588 1968.22 470.134 1971.4 471.224C1974.61 472.315 1977.46 473.861 1979.95 475.864C1982.46 477.867 1984.55 480.248 1986.19 483.007C1987.84 485.745 1988.95 488.782 1989.53 492.12H1978.95ZM2081.09 470.523V538.887H2070.77V470.523H2081.09ZM2163.79 538.887V470.523H2206.65V479.402H2174.1V500.232H2204.41V509.078H2174.1V530.007H2207.05V538.887H2163.79ZM2325.39 488.482C2325.04 485.322 2323.57 482.874 2320.99 481.138C2318.4 479.38 2315.16 478.501 2311.24 478.501C2308.43 478.501 2306.01 478.946 2303.96 479.836C2301.91 480.704 2300.32 481.906 2299.19 483.441C2298.08 484.955 2297.52 486.679 2297.52 488.615C2297.52 490.24 2297.9 491.642 2298.65 492.821C2299.43 494.001 2300.45 494.991 2301.69 495.792C2302.96 496.571 2304.32 497.228 2305.76 497.762C2307.21 498.274 2308.6 498.696 2309.94 499.03L2316.61 500.766C2318.79 501.3 2321.03 502.023 2323.32 502.936C2325.61 503.848 2327.74 505.05 2329.7 506.541C2331.66 508.032 2333.24 509.879 2334.44 512.082C2335.66 514.285 2336.27 516.922 2336.27 519.993C2336.27 523.865 2335.27 527.304 2333.27 530.308C2331.29 533.312 2328.41 535.682 2324.62 537.418C2320.86 539.154 2316.31 540.022 2310.97 540.022C2305.85 540.022 2301.42 539.209 2297.69 537.585C2293.95 535.96 2291.02 533.657 2288.91 530.675C2286.79 527.671 2285.62 524.11 2285.4 519.993H2295.75C2295.95 522.463 2296.75 524.522 2298.15 526.169C2299.58 527.793 2301.39 529.006 2303.59 529.807C2305.82 530.586 2308.26 530.975 2310.9 530.975C2313.82 530.975 2316.41 530.519 2318.68 529.607C2320.97 528.672 2322.78 527.382 2324.09 525.735C2325.4 524.066 2326.06 522.118 2326.06 519.893C2326.06 517.868 2325.48 516.21 2324.32 514.919C2323.19 513.629 2321.64 512.56 2319.68 511.715C2317.75 510.869 2315.56 510.124 2313.11 509.478L2305.03 507.275C2299.56 505.784 2295.22 503.592 2292.01 500.699C2288.83 497.806 2287.24 493.979 2287.24 489.216C2287.24 485.277 2288.31 481.839 2290.44 478.902C2292.58 475.964 2295.47 473.683 2299.12 472.059C2302.77 470.412 2306.89 469.588 2311.47 469.588C2316.1 469.588 2320.18 470.401 2323.72 472.025C2327.28 473.65 2330.09 475.886 2332.13 478.735C2334.18 481.561 2335.25 484.81 2335.34 488.482H2325.39Z" fill="white"/>
<line x1="862" y1="588.215" x2="2334" y2="588.215" stroke="white" stroke-width="5.56905"/>
<path d="M968.997 317.504H940.533C940.013 313.821 938.952 310.55 937.349 307.691C935.746 304.788 933.688 302.319 931.175 300.283C928.662 298.246 925.76 296.687 922.467 295.604C919.218 294.521 915.687 293.979 911.874 293.979C904.986 293.979 898.985 295.69 893.873 299.113C888.761 302.492 884.797 307.431 881.981 313.93C879.165 320.385 877.757 328.227 877.757 337.455C877.757 346.942 879.165 354.914 881.981 361.369C884.84 367.825 888.826 372.699 893.938 375.991C899.05 379.284 904.964 380.93 911.679 380.93C915.449 380.93 918.936 380.432 922.142 379.435C925.391 378.439 928.272 376.988 930.785 375.081C933.298 373.132 935.377 370.771 937.024 367.998C938.713 365.225 939.883 362.062 940.533 358.51L968.997 358.64C968.26 364.749 966.419 370.641 963.473 376.316C960.57 381.948 956.65 386.995 951.711 391.458C946.815 395.877 940.966 399.386 934.164 401.985C927.406 404.542 919.759 405.82 911.224 405.82C899.354 405.82 888.739 403.134 879.381 397.761C870.067 392.389 862.702 384.613 857.286 374.431C851.914 364.25 849.228 351.925 849.228 337.455C849.228 322.941 851.957 310.594 857.416 300.413C862.875 290.232 870.283 282.477 879.641 277.148C888.999 271.776 899.527 269.089 911.224 269.089C918.936 269.089 926.085 270.173 932.67 272.339C939.298 274.505 945.169 277.668 950.281 281.827C955.393 285.942 959.552 290.99 962.758 296.968C966.007 302.947 968.087 309.792 968.997 317.504ZM1084.19 270.909H1112.33V357.34C1112.33 367.045 1110.01 375.536 1105.38 382.815C1100.78 390.093 1094.35 395.768 1086.08 399.841C1077.8 403.87 1068.16 405.885 1057.16 405.885C1046.11 405.885 1036.45 403.87 1028.17 399.841C1019.9 395.768 1013.47 390.093 1008.87 382.815C1004.28 375.536 1001.98 367.045 1001.98 357.34V270.909H1030.12V354.936C1030.12 360.005 1031.23 364.51 1033.44 368.453C1035.69 372.395 1038.85 375.493 1042.93 377.746C1047 379.999 1051.74 381.125 1057.16 381.125C1062.62 381.125 1067.36 379.999 1071.39 377.746C1075.46 375.493 1078.6 372.395 1080.81 368.453C1083.07 364.51 1084.19 360.005 1084.19 354.936V270.909ZM1143.22 294.109V270.909H1252.53V294.109H1211.78V404H1183.97V294.109H1143.22ZM1278.27 294.109V270.909H1387.58V294.109H1346.83V404H1319.02V294.109H1278.27ZM1446.53 270.909V404H1418.39V270.909H1446.53ZM1593.81 270.909V404H1569.5L1511.6 320.233H1510.63V404H1482.49V270.909H1507.18L1564.63 354.611H1565.8V270.909H1593.81ZM1718.12 313.93C1717.21 310.767 1715.93 307.973 1714.28 305.547C1712.64 303.077 1710.62 300.998 1708.24 299.308C1705.9 297.575 1703.22 296.254 1700.18 295.344C1697.19 294.434 1693.88 293.979 1690.24 293.979C1683.44 293.979 1677.46 295.669 1672.3 299.048C1667.19 302.427 1663.21 307.344 1660.35 313.8C1657.49 320.212 1656.06 328.053 1656.06 337.325C1656.06 346.596 1657.47 354.481 1660.28 360.979C1663.1 367.478 1667.08 372.439 1672.24 375.861C1677.39 379.24 1683.48 380.93 1690.5 380.93C1696.87 380.93 1702.31 379.804 1706.81 377.551C1711.36 375.255 1714.83 372.027 1717.21 367.868C1719.63 363.709 1720.85 358.792 1720.85 353.116L1726.57 353.961H1692.25V332.776H1747.95V349.542C1747.95 361.239 1745.48 371.29 1740.54 379.695C1735.6 388.057 1728.8 394.512 1720.13 399.061C1711.47 403.567 1701.55 405.82 1690.37 405.82C1677.89 405.82 1666.93 403.069 1657.49 397.566C1648.04 392.021 1640.68 384.158 1635.39 373.977C1630.15 363.752 1627.53 351.621 1627.53 337.585C1627.53 326.797 1629.09 317.179 1632.21 308.731C1635.37 300.239 1639.79 293.048 1645.46 287.156C1651.14 281.263 1657.75 276.779 1665.29 273.703C1672.82 270.627 1680.99 269.089 1689.78 269.089C1697.32 269.089 1704.34 270.194 1710.84 272.404C1717.34 274.57 1723.1 277.646 1728.13 281.632C1733.2 285.618 1737.33 290.361 1740.54 295.864C1743.74 301.322 1745.8 307.344 1746.71 313.93H1718.12ZM1837.06 404V270.909H1926.74V294.109H1865.2V325.822H1922.12V349.022H1865.2V380.8H1927V404H1837.06ZM2009.1 404H1961.92V270.909H2009.49C2022.88 270.909 2034.4 273.574 2044.06 278.902C2053.72 284.188 2061.15 291.791 2066.35 301.712C2071.59 311.634 2074.22 323.504 2074.22 337.325C2074.22 351.188 2071.59 363.102 2066.35 373.067C2061.15 383.031 2053.68 390.678 2043.93 396.007C2034.23 401.336 2022.62 404 2009.1 404ZM1990.06 379.89H2007.93C2016.25 379.89 2023.24 378.417 2028.92 375.471C2034.64 372.482 2038.93 367.868 2041.79 361.629C2044.69 355.347 2046.14 347.246 2046.14 337.325C2046.14 327.49 2044.69 319.453 2041.79 313.215C2038.93 306.976 2034.66 302.384 2028.99 299.438C2023.31 296.492 2016.31 295.019 2007.99 295.019H1990.06V379.89ZM2196.12 313.93C2195.21 310.767 2193.93 307.973 2192.29 305.547C2190.64 303.077 2188.63 300.998 2186.24 299.308C2183.9 297.575 2181.22 296.254 2178.18 295.344C2175.19 294.434 2171.88 293.979 2168.24 293.979C2161.44 293.979 2155.46 295.669 2150.31 299.048C2145.19 302.427 2141.21 307.344 2138.35 313.8C2135.49 320.212 2134.06 328.053 2134.06 337.325C2134.06 346.596 2135.47 354.481 2138.28 360.979C2141.1 367.478 2145.08 372.439 2150.24 375.861C2155.4 379.24 2161.48 380.93 2168.5 380.93C2174.87 380.93 2180.31 379.804 2184.81 377.551C2189.36 375.255 2192.83 372.027 2195.21 367.868C2197.64 363.709 2198.85 358.792 2198.85 353.116L2204.57 353.961H2170.26V332.776H2225.95V349.542C2225.95 361.239 2223.48 371.29 2218.54 379.695C2213.6 388.057 2206.8 394.512 2198.13 399.061C2189.47 403.567 2179.55 405.82 2168.37 405.82C2155.89 405.82 2144.93 403.069 2135.49 397.566C2126.04 392.021 2118.68 384.158 2113.39 373.977C2108.15 363.752 2105.53 351.621 2105.53 337.585C2105.53 326.797 2107.09 317.179 2110.21 308.731C2113.37 300.239 2117.79 293.048 2123.47 287.156C2129.14 281.263 2135.75 276.779 2143.29 273.703C2150.83 270.627 2158.99 269.089 2167.79 269.089C2175.32 269.089 2182.34 270.194 2188.84 272.404C2195.34 274.57 2201.1 277.646 2206.13 281.632C2211.2 285.618 2215.33 290.361 2218.54 295.864C2221.75 301.322 2223.8 307.344 2224.71 313.93H2196.12ZM2259.9 404V270.909H2349.58V294.109H2288.03V325.822H2344.96V349.022H2288.03V380.8H2349.84V404H2259.9Z" fill="white"/>
<path d="M362 0L724 208.75V626.25L362 835L0 626.25V208.75L362 0Z" fill="white"/>
<path d="M361.55 89L646.1 253.09V581.27L361.55 745.36L77 581.27V253.09L361.55 89Z" fill="url(#paint0_linear_53_195)"/>
<path d="M362 41L688 229.25V605.75L362 794L36 605.75V229.25L362 41Z" fill="url(#paint1_linear_53_195)"/>
<path d="M361.5 88L646 252.5V581.5L361.5 746L77 581.5V252.5L361.5 88Z" fill="url(#paint2_linear_53_195)"/>
<path fill-rule="evenodd" clip-rule="evenodd" d="M196.15 317.98L248.29 347.87L241.14 352L192.81 324.28L181.18 317.61L177.95 315.77L173.32 313.11L176.87 306.92L177.95 307.55L185.07 311.63L196.15 317.98Z" fill="url(#paint3_linear_53_195)"/>
<path fill-rule="evenodd" clip-rule="evenodd" d="M185.079 316.44V269.27L177.949 273.39V318.57L185.079 316.44Z" fill="url(#paint4_linear_53_195)"/>
<path d="M196.48 315.01C196.48 307.52 190.42 301.46 182.94 301.46C175.46 301.46 169.39 307.53 169.39 315.01C169.39 322.49 175.45 328.56 182.94 328.56C190.43 328.56 196.48 322.49 196.48 315.01Z" fill="url(#paint5_linear_53_195)"/>
<path fill-rule="evenodd" clip-rule="evenodd" d="M647 549.03V557.6L552.85 611.79L530.47 624.67L528.76 625.65L528.67 625.49L525.21 619.47L526.66 618.63L534.61 614.03L540.71 610.5L541.73 609.91L549.52 605.42L647 549.03Z" fill="url(#paint6_linear_53_195)"/>
<path fill-rule="evenodd" clip-rule="evenodd" d="M364.45 722.57L544.09 616.38L540.55 610.19L364.45 714.01V722.57Z" fill="url(#paint7_linear_53_195)"/>
<path fill-rule="evenodd" clip-rule="evenodd" d="M543.281 610.8L543.271 610.83L542.831 611.58L542.631 611.93L542.081 612.89L539.721 616.98L536.861 615.34L536.151 614.92L534.611 614.03L534.311 613.87L529.761 611.24L528.981 610.8L527.021 609.67L523.481 607.62L513.141 601.67L520.271 597.54L527.181 601.53L531.351 603.93L536.111 606.68L536.821 607.08L541.731 609.91L541.951 610.04L543.281 610.8Z" fill="url(#paint8_linear_53_195)"/>
<path d="M526.07 614.67C526.07 622.16 532.13 628.22 539.61 628.22C547.09 628.22 553.15 622.15 553.15 614.67C553.15 607.19 547.09 601.12 539.61 601.12C532.13 601.12 526.07 607.19 526.07 614.67Z" fill="url(#paint9_linear_53_195)"/>
<path fill-rule="evenodd" clip-rule="evenodd" d="M308.4 691.73L116.3 578.17L119.84 571.98L308.4 683.16V691.72V691.73Z" fill="url(#paint10_linear_53_195)"/>
<path fill-rule="evenodd" clip-rule="evenodd" d="M102.39 594.63L135.53 575.23L131.97 569.05L95.2598 590.35L102.39 594.63Z" fill="url(#paint11_linear_53_195)"/>
<path d="M114.04 579.29C114.04 571.81 120.1 565.74 127.58 565.74C135.06 565.74 141.12 571.81 141.12 579.29C141.12 586.77 135.06 592.84 127.58 592.84C120.1 592.84 114.04 586.77 114.04 579.29Z" fill="url(#paint12_linear_53_195)"/>
<path fill-rule="evenodd" clip-rule="evenodd" d="M447.84 258.4L527.61 305.51L524.04 311.68L446.39 266.69L447.84 258.4Z" fill="url(#paint13_linear_53_195)"/>
<path fill-rule="evenodd" clip-rule="evenodd" d="M524.4 302.89V375.32L517.27 371.2V302.89H524.4Z" fill="url(#paint14_linear_53_195)"/>
<path d="M507.27 306.07C507.27 313.55 513.33 319.62 520.82 319.62C528.31 319.62 534.36 313.55 534.36 306.07C534.36 298.59 528.3 292.52 520.82 292.52C513.34 292.52 507.27 298.59 507.27 306.07Z" fill="url(#paint15_linear_53_195)"/>
<path fill-rule="evenodd" clip-rule="evenodd" d="M142.3 294L113.79 277.53V536.15L142.3 554.7V294Z" fill="url(#paint16_linear_53_195)"/>
<path fill-rule="evenodd" clip-rule="evenodd" d="M142.3 294L249.94 231.78L235.68 207.07L113.78 277.53L142.29 294H142.3Z" fill="url(#paint17_linear_53_195)"/>
<path fill-rule="evenodd" clip-rule="evenodd" d="M583.7 294L612.21 277.53V536.15L583.7 553.98V294Z" fill="url(#paint18_linear_53_195)"/>
<path fill-rule="evenodd" clip-rule="evenodd" d="M583.7 294L476.06 231.78L490.32 207.07L612.22 277.53L583.71 294H583.7Z" fill="url(#paint19_linear_53_195)"/>
<path d="M597.96 451.25C612.13 451.25 623.62 462.75 623.62 476.93C623.62 491.11 612.13 502.61 597.96 502.61C583.79 502.61 572.3 491.11 572.3 476.93C572.3 462.75 583.79 451.25 597.96 451.25Z" fill="url(#paint20_radial_53_195)"/>
<path d="M511.31 206.64C523.48 213.91 527.46 229.67 520.2 241.85C512.94 254.03 497.18 258.01 485.01 250.75C472.84 243.48 468.86 227.72 476.12 215.54C483.38 203.36 499.14 199.38 511.31 206.64Z" fill="url(#paint21_radial_53_195)"/>
<path d="M249.89 215.54C257.15 227.72 253.17 243.48 241 250.75C228.83 258.02 213.07 254.03 205.81 241.85C198.55 229.67 202.53 213.91 214.7 206.64C226.87 199.37 242.62 203.36 249.89 215.54Z" fill="url(#paint22_radial_53_195)"/>
<path d="M128.05 407.17C113.88 407.17 102.39 395.67 102.39 381.49C102.39 367.31 113.88 355.81 128.05 355.81C142.22 355.81 153.71 367.31 153.71 381.49C153.71 395.67 142.22 407.17 128.05 407.17Z" fill="url(#paint23_radial_53_195)"/>
<path d="M430.34 320.93V317.23C441.38 300.14 448.88 278.68 448.88 255.11C448.88 231.54 445.84 206.76 432.45 186.32C417.47 163.47 393.12 152.1 362.62 152.1C332.12 152.1 307.78 163.47 292.8 186.32C279.41 206.76 276.37 232.29 276.37 255.11C276.37 277.93 283.55 300.97 294.91 318.59V320.93L178 388.51V581.95L362.63 688.67L547.26 581.95V388.51L430.36 320.93H430.34ZM518.7 565.47L473.04 591.86V475.98L443.51 608.93L362.61 655.69L362.59 655.71L284.32 610.47L254.46 475.98V593.2L206.47 565.47V404.97L323.38 337.39V309.48C323.38 309.48 323.35 309.45 323.33 309.42L323.36 309.73L322.42 308.24C322.12 307.84 321.83 307.42 321.53 307.01C321.44 306.87 321.33 306.73 321.24 306.61C320.65 305.8 320.08 304.98 319.53 304.14C319.47 304.06 319.4 303.97 319.35 303.87C318.76 302.98 318.18 302.07 317.62 301.14C317.61 301.12 317.61 301.11 317.6 301.08C316.57 299.39 315.59 297.67 314.66 295.88L295.57 265.51L305.04 246.16C306.24 219.76 313.15 198.34 331.56 187.77C331.61 187.75 331.64 187.72 331.69 187.7C332.51 187.24 333.35 186.79 334.22 186.37C334.34 186.31 334.45 186.25 334.57 186.21C335.37 185.82 336.19 185.45 337.04 185.1C337.2 185.03 337.38 184.96 337.55 184.89C338.35 184.58 339.17 184.28 340.01 183.99C340.23 183.92 340.44 183.84 340.66 183.77C341.48 183.5 342.31 183.26 343.16 183.03C343.41 182.96 343.67 182.88 343.92 182.82C344.75 182.6 345.61 182.4 346.47 182.22C346.76 182.15 347.04 182.09 347.33 182.03C348.2 181.86 349.09 181.71 349.99 181.57C350.29 181.51 350.59 181.47 350.89 181.42C351.81 181.29 352.76 181.18 353.72 181.07C354.02 181.05 354.32 181 354.62 180.98C355.65 180.89 356.71 180.82 357.78 180.76C358.03 180.75 358.28 180.73 358.53 180.71C359.85 180.65 361.2 180.62 362.59 180.62H362.61C362.9 180.62 363.18 180.63 363.47 180.63C364.54 180.64 365.62 180.66 366.66 180.71C367.4 180.73 368.12 180.8 368.84 180.85C369.39 180.88 369.96 180.92 370.5 180.97C371.32 181.05 372.11 181.14 372.89 181.25C373.32 181.3 373.76 181.34 374.18 181.4C375.01 181.52 375.82 181.67 376.62 181.8C376.97 181.87 377.32 181.92 377.67 181.99C378.51 182.15 379.32 182.35 380.13 182.53C380.41 182.6 380.71 182.67 381 182.74C381.83 182.95 382.63 183.19 383.44 183.42C383.67 183.5 383.91 183.56 384.14 183.64C384.96 183.89 385.77 184.18 386.56 184.47C386.74 184.54 386.94 184.61 387.13 184.68C387.94 185 388.74 185.34 389.52 185.69C389.66 185.75 389.8 185.82 389.94 185.88C390.75 186.25 391.53 186.64 392.31 187.06L392.59 187.2C393.4 187.64 394.18 188.09 394.95 188.56C395 188.58 395.03 188.62 395.08 188.64C413.1 199.93 419.48 222.19 420.24 249.31L420.29 249.39L428.18 265.51L412.75 290.04L412.62 290.25C409.64 296.82 405.95 302.84 401.79 308.14V337.39L518.7 404.97V565.47Z" fill="white"/>
<path d="M401.78 337.4V308.15C405.94 302.85 409.63 296.83 412.61 290.26L412.74 290.05L428.17 265.52L420.28 249.4L420.23 249.32C419.47 222.2 413.09 199.94 395.07 188.65C395.02 188.63 394.99 188.59 394.94 188.57C394.18 188.1 393.39 187.64 392.58 187.21L392.3 187.07C391.53 186.65 390.74 186.26 389.93 185.89C389.79 185.83 389.65 185.76 389.51 185.7C388.72 185.35 387.93 185.02 387.12 184.69C386.94 184.62 386.74 184.55 386.55 184.48C385.76 184.19 384.96 183.9 384.13 183.65C383.9 183.57 383.66 183.51 383.43 183.43C382.62 183.2 381.82 182.96 380.99 182.75C380.7 182.68 380.4 182.61 380.12 182.54C379.31 182.35 378.5 182.16 377.66 182C377.31 181.93 376.96 181.88 376.61 181.81C375.81 181.67 375 181.52 374.17 181.41C373.74 181.35 373.3 181.31 372.88 181.26C372.09 181.16 371.31 181.06 370.49 180.98C369.95 180.93 369.38 180.9 368.83 180.86C368.1 180.81 367.39 180.74 366.65 180.72C365.61 180.67 364.53 180.65 363.46 180.64C363.17 180.64 362.89 180.63 362.6 180.63H362.58C361.19 180.63 359.84 180.66 358.52 180.72C358.27 180.73 358.02 180.75 357.77 180.77C356.71 180.83 355.64 180.9 354.61 180.99C354.31 181.01 354.01 181.06 353.71 181.08C352.75 181.18 351.8 181.3 350.88 181.43C350.58 181.48 350.28 181.52 349.98 181.58C349.08 181.72 348.19 181.87 347.32 182.04C347.03 182.1 346.75 182.16 346.46 182.23C345.59 182.42 344.74 182.61 343.91 182.83C343.66 182.89 343.4 182.97 343.15 183.04C342.31 183.27 341.47 183.51 340.65 183.78C340.43 183.85 340.22 183.93 340 184C339.16 184.29 338.34 184.59 337.54 184.9C337.37 184.97 337.19 185.04 337.03 185.11C336.17 185.46 335.35 185.83 334.56 186.22C334.44 186.27 334.33 186.32 334.21 186.38C333.34 186.8 332.5 187.25 331.68 187.71C331.63 187.73 331.6 187.76 331.55 187.78C313.14 198.35 306.23 219.77 305.03 246.17L295.56 265.52L314.65 295.89C315.57 297.68 316.56 299.41 317.59 301.09C317.6 301.11 317.6 301.12 317.61 301.15C318.18 302.08 318.75 302.99 319.34 303.88C319.4 303.97 319.47 304.07 319.52 304.15C320.07 304.99 320.64 305.82 321.23 306.62C321.32 306.75 321.43 306.89 321.52 307.02C321.82 307.42 322.11 307.84 322.41 308.25L323.35 309.74L323.32 309.43C323.32 309.43 323.34 309.46 323.37 309.49V337.4L206.46 404.98V565.48L254.45 593.21V475.99L284.31 610.48L362.58 655.72L362.6 655.7L443.5 608.94L473.03 475.99V591.87L518.69 565.48V404.98L401.78 337.4ZM362.96 516.05C329.1 516.05 301.65 488.58 301.65 454.7C301.65 420.82 329.1 393.36 362.96 393.36C396.82 393.36 424.26 420.83 424.26 454.7C424.26 488.57 396.81 516.05 362.96 516.05Z" fill="#404E57"/>
<path fill-rule="evenodd" clip-rule="evenodd" d="M319.42 411.25C314 416.65 309.58 423.06 306.49 430.17L233.16 389.39L256.18 376.09L319.42 411.25Z" fill="url(#paint24_linear_53_195)"/>
<path fill-rule="evenodd" clip-rule="evenodd" d="M406.41 411.25C411.83 416.65 416.25 423.06 419.34 430.17L492.67 389.39L469.65 376.09L406.41 411.25Z" fill="url(#paint25_linear_53_195)"/>
<path d="M401.121 454.7C401.121 475.79 384.041 492.89 362.961 492.89C341.881 492.89 324.801 475.79 324.801 454.7C324.801 433.61 341.881 416.52 362.961 416.52C384.041 416.52 401.121 433.62 401.121 454.7Z" fill="url(#paint26_linear_53_195)"/>
<path d="M362.96 393.35C329.1 393.35 301.65 420.81 301.65 454.7C301.65 488.59 329.1 516.05 362.96 516.05C396.82 516.05 424.26 488.58 424.26 454.7C424.26 420.82 396.81 393.35 362.96 393.35ZM362.96 493.22C341.7 493.22 324.47 475.97 324.47 454.7C324.47 433.43 341.7 416.18 362.96 416.18C384.22 416.18 401.45 433.43 401.45 454.7C401.45 475.97 384.22 493.22 362.96 493.22Z" fill="url(#paint27_radial_53_195)"/>
<path fill-rule="evenodd" clip-rule="evenodd" d="M324.799 566.14V633.85H324.739L301.989 620.7V566.14H324.799Z" fill="url(#paint28_linear_53_195)"/>
<path d="M333.35 561.02C333.35 572.05 324.41 580.99 313.39 580.99C302.37 580.99 293.43 572.05 293.43 561.02C293.43 549.99 302.37 541.05 313.39 541.05C324.41 541.05 333.35 549.99 333.35 561.02Z" fill="url(#paint29_radial_53_195)"/>
<path fill-rule="evenodd" clip-rule="evenodd" d="M424.59 544.279V619.889L401.77 633.089V544.279H424.59Z" fill="url(#paint30_linear_53_195)"/>
<path d="M433.14 544.28C433.14 555.31 424.2 564.25 413.18 564.25C402.16 564.25 393.22 555.31 393.22 544.28C393.22 533.25 402.16 524.31 413.18 524.31C424.2 524.31 433.14 533.25 433.14 544.28Z" fill="url(#paint31_radial_53_195)"/>
<path fill-rule="evenodd" clip-rule="evenodd" d="M374.019 599.989V649.129L362.619 655.719H362.569L351.209 649.149V599.989H374.019Z" fill="url(#paint32_linear_53_195)"/>
<path d="M382.58 598.72C382.58 609.75 373.64 618.69 362.62 618.69C351.6 618.69 342.66 609.75 342.66 598.72C342.66 587.69 351.6 578.75 362.62 578.75C373.64 578.75 382.58 587.69 382.58 598.72Z" fill="url(#paint33_radial_53_195)"/>
<defs>
<linearGradient id="paint0_linear_53_195" x1="361.55" y1="727.4" x2="361.55" y2="94.32" gradientUnits="userSpaceOnUse">
<stop stop-color="#404E57"/>
<stop offset="1" stop-color="#1D282C"/>
</linearGradient>
<linearGradient id="paint1_linear_53_195" x1="362" y1="57.1061" x2="362" y2="796.309" gradientUnits="userSpaceOnUse">
<stop stop-color="#404E57"/>
<stop offset="1" stop-color="#1D282C"/>
</linearGradient>
<linearGradient id="paint2_linear_53_195" x1="361.5" y1="727.995" x2="361.5" y2="93.3333" gradientUnits="userSpaceOnUse">
<stop stop-color="#404E57"/>
<stop offset="1" stop-color="#1D282C"/>
</linearGradient>
<linearGradient id="paint3_linear_53_195" x1="221.18" y1="322.57" x2="177.62" y2="347.24" gradientUnits="userSpaceOnUse">
<stop stop-color="#404E57"/>
<stop offset="1" stop-color="#1D282C"/>
</linearGradient>
<linearGradient id="paint4_linear_53_195" x1="211.559" y1="316.51" x2="163.699" y2="280.53" gradientUnits="userSpaceOnUse">
<stop stop-color="#1D282C"/>
<stop offset="1" stop-color="#404E57"/>
</linearGradient>
<linearGradient id="paint5_linear_53_195" x1="182.94" y1="325.88" x2="182.94" y2="301.45" gradientUnits="userSpaceOnUse">
<stop stop-color="#D82C3C"/>
<stop offset="1" stop-color="#640E16"/>
</linearGradient>
<linearGradient id="paint6_linear_53_195" x1="569.85" y1="577.13" x2="640.26" y2="617.01" gradientUnits="userSpaceOnUse">
<stop stop-color="#1D282C"/>
<stop offset="1" stop-color="#404E57"/>
</linearGradient>
<linearGradient id="paint7_linear_53_195" x1="526.45" y1="624.49" x2="393.98" y2="699.52" gradientUnits="userSpaceOnUse">
<stop stop-color="#1D282C"/>
<stop offset="0.998958" stop-color="#404E57"/>
</linearGradient>
<linearGradient id="paint8_linear_53_195" x1="534.111" y1="604.89" x2="519.401" y2="613.37" gradientUnits="userSpaceOnUse">
<stop stop-color="#404E57"/>
<stop offset="1" stop-color="#1D282C"/>
</linearGradient>
<linearGradient id="paint9_linear_53_195" x1="539.62" y1="603.79" x2="539.62" y2="628.22" gradientUnits="userSpaceOnUse">
<stop stop-color="#D82C3C"/>
<stop offset="1" stop-color="#640E16"/>
</linearGradient>
<linearGradient id="paint10_linear_53_195" x1="146.46" y1="593.53" x2="278.94" y2="668.56" gradientUnits="userSpaceOnUse">
<stop stop-color="#1D282C"/>
<stop offset="1" stop-color="#404E57"/>
</linearGradient>
<linearGradient id="paint11_linear_53_195" x1="122.93" y1="578.52" x2="85.8498" y2="599.91" gradientUnits="userSpaceOnUse">
<stop stop-color="#404E57"/>
<stop offset="1" stop-color="#1D282C"/>
</linearGradient>
<linearGradient id="paint12_linear_53_195" x1="127.58" y1="590.16" x2="127.58" y2="565.73" gradientUnits="userSpaceOnUse">
<stop stop-color="#D82C3C"/>
<stop offset="1" stop-color="#640E16"/>
</linearGradient>
<linearGradient id="paint13_linear_53_195" x1="507.52" y1="297.42" x2="444.2" y2="261.08" gradientUnits="userSpaceOnUse">
<stop stop-color="#404E57"/>
<stop offset="1" stop-color="#1D282C"/>
</linearGradient>
<linearGradient id="paint14_linear_53_195" x1="478.63" y1="359.32" x2="557.88" y2="321.35" gradientUnits="userSpaceOnUse">
<stop stop-color="#1D282C"/>
<stop offset="1" stop-color="#404E57"/>
</linearGradient>
<linearGradient id="paint15_linear_53_195" x1="520.81" y1="295.19" x2="520.81" y2="319.62" gradientUnits="userSpaceOnUse">
<stop stop-color="#D82C3C"/>
<stop offset="1" stop-color="#640E16"/>
</linearGradient>
<linearGradient id="paint16_linear_53_195" x1="128.05" y1="305.02" x2="128.05" y2="566.81" gradientUnits="userSpaceOnUse">
<stop stop-color="white"/>
<stop offset="0.29" stop-color="#404E57"/>
<stop offset="1" stop-color="white"/>
</linearGradient>
<linearGradient id="paint17_linear_53_195" x1="110.01" y1="297.62" x2="238.18" y2="220.97" gradientUnits="userSpaceOnUse">
<stop stop-color="#404E57"/>
<stop offset="1" stop-color="white"/>
</linearGradient>
<linearGradient id="paint18_linear_53_195" x1="597.96" y1="305.02" x2="597.96" y2="568.95" gradientUnits="userSpaceOnUse">
<stop stop-color="white"/>
<stop offset="0.71" stop-color="#404E57"/>
<stop offset="1" stop-color="white"/>
</linearGradient>
<linearGradient id="paint19_linear_53_195" x1="598.33" y1="219.59" x2="513.4" y2="262.44" gradientUnits="userSpaceOnUse">
<stop stop-color="#404E57"/>
<stop offset="1" stop-color="white"/>
</linearGradient>
<radialGradient id="paint20_radial_53_195" cx="0" cy="0" r="1" gradientUnits="userSpaceOnUse" gradientTransform="translate(580.514 476.241) rotate(-90) scale(52.1188 52.1188)">
<stop stop-color="white"/>
<stop offset="1" stop-color="#404E57"/>
</radialGradient>
<radialGradient id="paint21_radial_53_195" cx="0" cy="0" r="1" gradientUnits="userSpaceOnUse" gradientTransform="translate(485.499 220.76) rotate(-59.2) scale(52.1188 52.1188)">
<stop stop-color="white"/>
<stop offset="1" stop-color="#404E57"/>
</radialGradient>
<radialGradient id="paint22_radial_53_195" cx="0" cy="0" r="1" gradientUnits="userSpaceOnUse" gradientTransform="translate(234.033 220.101) rotate(-120.8) scale(52.1188)">
<stop stop-color="white"/>
<stop offset="1" stop-color="#404E57"/>
</radialGradient>
<radialGradient id="paint23_radial_53_195" cx="0" cy="0" r="1" gradientUnits="userSpaceOnUse" gradientTransform="translate(139.758 389.912) rotate(90) scale(52.1188 52.1188)">
<stop stop-color="white"/>
<stop offset="1" stop-color="#404E57"/>
</radialGradient>
<linearGradient id="paint24_linear_53_195" x1="321.63" y1="424.35" x2="256.05" y2="389.81" gradientUnits="userSpaceOnUse">
<stop stop-color="#404E57"/>
<stop offset="1" stop-color="white"/>
</linearGradient>
<linearGradient id="paint25_linear_53_195" x1="404.21" y1="424.35" x2="469.79" y2="389.81" gradientUnits="userSpaceOnUse">
<stop stop-color="#404E57"/>
<stop offset="1" stop-color="white"/>
</linearGradient>
<linearGradient id="paint26_linear_53_195" x1="362.961" y1="424.05" x2="362.961" y2="492.88" gradientUnits="userSpaceOnUse">
<stop stop-color="#D82C3C"/>
<stop offset="1" stop-color="#640E16"/>
</linearGradient>
<radialGradient id="paint27_radial_53_195" cx="0" cy="0" r="1" gradientUnits="userSpaceOnUse" gradientTransform="translate(364.503 421.915) scale(143.956 143.956)">
<stop stop-color="white"/>
<stop offset="1" stop-color="#404E57"/>
</radialGradient>
<linearGradient id="paint28_linear_53_195" x1="313.399" y1="565.51" x2="313.399" y2="622.35" gradientUnits="userSpaceOnUse">
<stop stop-color="#404E57"/>
<stop offset="1" stop-color="white"/>
</linearGradient>
<radialGradient id="paint29_radial_53_195" cx="0" cy="0" r="1" gradientUnits="userSpaceOnUse" gradientTransform="translate(315.144 550.543) scale(40.5304 40.5304)">
<stop stop-color="white"/>
<stop offset="1" stop-color="#404E57"/>
</radialGradient>
<linearGradient id="paint30_linear_53_195" x1="413.18" y1="544.499" x2="413.18" y2="619.059" gradientUnits="userSpaceOnUse">
<stop stop-color="#404E57"/>
<stop offset="1" stop-color="white"/>
</linearGradient>
<radialGradient id="paint31_radial_53_195" cx="0" cy="0" r="1" gradientUnits="userSpaceOnUse" gradientTransform="translate(415.311 533.757) scale(40.5304 40.5304)">
<stop stop-color="white"/>
<stop offset="1" stop-color="#404E57"/>
</radialGradient>
<linearGradient id="paint32_linear_53_195" x1="362.619" y1="602.449" x2="362.619" y2="649.229" gradientUnits="userSpaceOnUse">
<stop stop-color="#404E57"/>
<stop offset="1" stop-color="white"/>
</linearGradient>
<radialGradient id="paint33_radial_53_195" cx="0" cy="0" r="1" gradientUnits="userSpaceOnUse" gradientTransform="translate(364.549 588.359) scale(40.5304 40.5304)">
<stop stop-color="white"/>
<stop offset="1" stop-color="#404E57"/>
</radialGradient>
</defs>
</svg>
